REM DISCID A610E90A
REM COMMENT "ExactAudioCopy v1.0b2"
PERFORMER "Unknown Artist"
TITLE "Unknown Title"
FILE "usandthem.wav" WAVE
  TRACK 01 AUDIO
    TITLE "Track01"
    PERFORMER "Unknown Artist"
    INDEX 00 00:00:00
    INDEX 01 00:00:33
  TRACK 02 AUDIO
    TITLE "Track02"
    PERFORMER "Unknown Artist"
    INDEX 01 08:13:33
  TRACK 03 AUDIO
    TITLE "Track03"
    PERFORMER "Unknown Artist"
    INDEX 00 13:24:33
    INDEX 01 13:27:33
  TRACK 04 AUDIO
    TITLE "Track04"
    PERFORMER "Unknown Artist"
    INDEX 00 21:53:33
    INDEX 01 21:55:33
  TRACK 05 AUDIO
    TITLE "Track05"
    PERFORMER "Unknown Artist"
    INDEX 00 27:20:33
    INDEX 01 27:22:33
  TRACK 06 AUDIO
    TITLE "Track06"
    PERFORMER "Unknown Artist"
    INDEX 00 31:24:33
    INDEX 01 31:26:33
  TRACK 07 AUDIO
    TITLE "Track07"
    PERFORMER "Unknown Artist"
    INDEX 00 38:09:34
    INDEX 01 38:12:33
  TRACK 08 AUDIO
    TITLE "Track08"
    PERFORMER "Unknown Artist"
    INDEX 00 43:21:34
    INDEX 01 43:23:33
  TRACK 09 AUDIO
    TITLE "Track09"
    PERFORMER "Unknown Artist"
    INDEX 00 49:47:33
    INDEX 01 49:49:33
  TRACK 10 AUDIO
    TITLE "Track10"
    PERFORMER "Unknown Artist"
    INDEX 00 61:23:35
    INDEX 01 61:27:33
